<mxfile host="65bd71144e">
    <diagram name="PÃ¡gina-1" id="e75EqAmOv074ZMDRGjy2">
        <mxGraphModel dx="2244" dy="1979" grid="1" gridSize="10" guides="1" tooltips="1" connect="1" arrows="1" fold="1" page="1" pageScale="1" pageWidth="827" pageHeight="1169" math="0" shadow="0">
            <root>
                <mxCell id="0"/>
                <mxCell id="1" parent="0"/>
                <mxCell id="58" value="library" style="shape=folder;fontStyle=1;spacingTop=10;tabWidth=40;tabHeight=14;tabPosition=left;html=1;" parent="1" vertex="1">
                    <mxGeometry x="-870" y="-1060" width="2110" height="1070" as="geometry"/>
                </mxCell>
                <mxCell id="Qyo6VF3bzxbn2ctdWiol-2" value="Book" style="swimlane;fontStyle=1;align=center;verticalAlign=top;childLayout=stackLayout;horizontal=1;startSize=26;horizontalStack=0;resizeParent=1;resizeParentMax=0;resizeLast=0;collapsible=1;marginBottom=0;whiteSpace=wrap;html=1;" parent="1" vertex="1">
                    <mxGeometry x="-550" y="-764" width="260" height="510" as="geometry"/>
                </mxCell>
                <mxCell id="Qyo6VF3bzxbn2ctdWiol-3" value="&lt;div&gt;- name:String&lt;/div&gt;&lt;div&gt;- author:String&lt;/div&gt;&lt;div&gt;- pages:int&lt;/div&gt;&lt;div&gt;- id:int&lt;/div&gt;&lt;div&gt;- isbn:String&lt;/div&gt;&lt;div&gt;- editorial:String&lt;/div&gt;&lt;div&gt;- collection:String&lt;/div&gt;&lt;div&gt;- category:String&lt;/div&gt;&lt;div&gt;- location:String&lt;/div&gt;&lt;div&gt;- avaliability:boolean&lt;/div&gt;" style="text;strokeColor=none;fillColor=none;align=left;verticalAlign=top;spacingLeft=4;spacingRight=4;overflow=hidden;rotatable=0;points=[[0,0.5],[1,0.5]];portConstraint=eastwest;whiteSpace=wrap;html=1;" parent="Qyo6VF3bzxbn2ctdWiol-2" vertex="1">
                    <mxGeometry y="26" width="260" height="164" as="geometry"/>
                </mxCell>
                <mxCell id="Qyo6VF3bzxbn2ctdWiol-4" value="" style="line;strokeWidth=1;fillColor=none;align=left;verticalAlign=middle;spacingTop=-1;spacingLeft=3;spacingRight=3;rotatable=0;labelPosition=right;points=[];portConstraint=eastwest;strokeColor=inherit;" parent="Qyo6VF3bzxbn2ctdWiol-2" vertex="1">
                    <mxGeometry y="190" width="260" height="30" as="geometry"/>
                </mxCell>
                <mxCell id="Qyo6VF3bzxbn2ctdWiol-5" value="&lt;div&gt;+ Book(String name, String author, int pages, int id, String isbn ,String editorial, String collection, String category, String location, boolean avaliability, Section section)&lt;/div&gt;&lt;div&gt;+ getName(): String&lt;/div&gt;&lt;div&gt;+ getAuthor(): String&lt;/div&gt;&lt;div&gt;+ getPages(): String&lt;/div&gt;&lt;div&gt;+ getId(): int&lt;/div&gt;&lt;div&gt;+ getISBN(): String&lt;/div&gt;&lt;div&gt;+ getEditorial(): String&lt;/div&gt;&lt;div&gt;+ getCollection(): String&lt;/div&gt;&lt;div&gt;+ getLocation(): String&lt;/div&gt;&lt;div&gt;+ getAvaliability(): boolean&lt;/div&gt;&lt;div&gt;+ getSection(): Section&lt;/div&gt;&lt;div&gt;+ setId(int id)&lt;/div&gt;&lt;div&gt;+ setSection(Section section)&lt;/div&gt;&lt;div&gt;+ toString(): String&lt;/div&gt;&lt;div&gt;+ lentBook()&lt;/div&gt;&lt;div&gt;+ returnBook()&lt;/div&gt;" style="text;strokeColor=none;fillColor=none;align=left;verticalAlign=top;spacingLeft=4;spacingRight=4;overflow=hidden;rotatable=0;points=[[0,0.5],[1,0.5]];portConstraint=eastwest;whiteSpace=wrap;html=1;" parent="Qyo6VF3bzxbn2ctdWiol-2" vertex="1">
                    <mxGeometry y="220" width="260" height="290" as="geometry"/>
                </mxCell>
                <mxCell id="Qyo6VF3bzxbn2ctdWiol-7" value="Member" style="swimlane;fontStyle=1;align=center;verticalAlign=top;childLayout=stackLayout;horizontal=1;startSize=26;horizontalStack=0;resizeParent=1;resizeParentMax=0;resizeLast=0;collapsible=1;marginBottom=0;whiteSpace=wrap;html=1;" parent="1" vertex="1">
                    <mxGeometry x="1230" y="-904" width="216" height="270" as="geometry"/>
                </mxCell>
                <mxCell id="Qyo6VF3bzxbn2ctdWiol-8" value="&lt;div&gt;- name:String&lt;/div&gt;&lt;div&gt;- id:int&lt;/div&gt;&lt;div&gt;- email:String&lt;/div&gt;" style="text;strokeColor=none;fillColor=none;align=left;verticalAlign=top;spacingLeft=4;spacingRight=4;overflow=hidden;rotatable=0;points=[[0,0.5],[1,0.5]];portConstraint=eastwest;whiteSpace=wrap;html=1;" parent="Qyo6VF3bzxbn2ctdWiol-7" vertex="1">
                    <mxGeometry y="26" width="216" height="84" as="geometry"/>
                </mxCell>
                <mxCell id="Qyo6VF3bzxbn2ctdWiol-9" value="" style="line;strokeWidth=1;fillColor=none;align=left;verticalAlign=middle;spacingTop=-1;spacingLeft=3;spacingRight=3;rotatable=0;labelPosition=right;points=[];portConstraint=eastwest;strokeColor=inherit;" parent="Qyo6VF3bzxbn2ctdWiol-7" vertex="1">
                    <mxGeometry y="110" width="216" height="8" as="geometry"/>
                </mxCell>
                <mxCell id="Qyo6VF3bzxbn2ctdWiol-10" value="&lt;div&gt;+ getName(): String&lt;/div&gt;&lt;div&gt;+ getId(): Id&lt;/div&gt;&lt;div&gt;+ getEmail(): String&lt;/div&gt;&lt;div&gt;+ getBorrowedBooks: ArrayList&amp;lt;Book&amp;gt;&lt;/div&gt;&lt;div&gt;+ setId(int id)&lt;/div&gt;&lt;div&gt;+ addBook(Book book)&lt;/div&gt;&lt;div&gt;+ toString(): String&lt;/div&gt;&lt;div&gt;+ borrowBook()&lt;/div&gt;&lt;div&gt;+ returnBook()&lt;/div&gt;" style="text;strokeColor=none;fillColor=none;align=left;verticalAlign=top;spacingLeft=4;spacingRight=4;overflow=hidden;rotatable=0;points=[[0,0.5],[1,0.5]];portConstraint=eastwest;whiteSpace=wrap;html=1;" parent="Qyo6VF3bzxbn2ctdWiol-7" vertex="1">
                    <mxGeometry y="118" width="216" height="152" as="geometry"/>
                </mxCell>
                <mxCell id="Qyo6VF3bzxbn2ctdWiol-11" value="librarian" style="swimlane;fontStyle=1;align=center;verticalAlign=top;childLayout=stackLayout;horizontal=1;startSize=26;horizontalStack=0;resizeParent=1;resizeParentMax=0;resizeLast=0;collapsible=1;marginBottom=0;whiteSpace=wrap;html=1;" parent="1" vertex="1">
                    <mxGeometry x="503" y="-634" width="160" height="290" as="geometry"/>
                </mxCell>
                <mxCell id="Qyo6VF3bzxbn2ctdWiol-12" value="&lt;div&gt;- name:String&lt;/div&gt;&lt;div&gt;- id:int&lt;/div&gt;&lt;div&gt;- schedule:String&lt;/div&gt;" style="text;strokeColor=none;fillColor=none;align=left;verticalAlign=top;spacingLeft=4;spacingRight=4;overflow=hidden;rotatable=0;points=[[0,0.5],[1,0.5]];portConstraint=eastwest;whiteSpace=wrap;html=1;" parent="Qyo6VF3bzxbn2ctdWiol-11" vertex="1">
                    <mxGeometry y="26" width="160" height="74" as="geometry"/>
                </mxCell>
                <mxCell id="Qyo6VF3bzxbn2ctdWiol-13" value="" style="line;strokeWidth=1;fillColor=none;align=left;verticalAlign=middle;spacingTop=-1;spacingLeft=3;spacingRight=3;rotatable=0;labelPosition=right;points=[];portConstraint=eastwest;strokeColor=inherit;" parent="Qyo6VF3bzxbn2ctdWiol-11" vertex="1">
                    <mxGeometry y="100" width="160" height="8" as="geometry"/>
                </mxCell>
                <mxCell id="Qyo6VF3bzxbn2ctdWiol-14" value="&lt;div&gt;+ Librarian(String name, int id, Section section, String schedule)&lt;/div&gt;&lt;div&gt;+ getName(): String&lt;/div&gt;&lt;div&gt;+ getId(): int&lt;/div&gt;&lt;div&gt;+ getSection(): Section&lt;/div&gt;&lt;div&gt;+ getSchedule(): String&lt;/div&gt;&lt;div&gt;+ setSection(Section section)&lt;/div&gt;&lt;div&gt;+ setSchedule(String string)&lt;/div&gt;&lt;div&gt;+ setId(int id)&lt;/div&gt;&lt;div&gt;+ toString(): String&lt;/div&gt;" style="text;strokeColor=none;fillColor=none;align=left;verticalAlign=top;spacingLeft=4;spacingRight=4;overflow=hidden;rotatable=0;points=[[0,0.5],[1,0.5]];portConstraint=eastwest;whiteSpace=wrap;html=1;" parent="Qyo6VF3bzxbn2ctdWiol-11" vertex="1">
                    <mxGeometry y="108" width="160" height="182" as="geometry"/>
                </mxCell>
                <mxCell id="Qyo6VF3bzxbn2ctdWiol-15" value="Section" style="swimlane;fontStyle=1;align=center;verticalAlign=top;childLayout=stackLayout;horizontal=1;startSize=26;horizontalStack=0;resizeParent=1;resizeParentMax=0;resizeLast=0;collapsible=1;marginBottom=0;whiteSpace=wrap;html=1;" parent="1" vertex="1">
                    <mxGeometry x="-140" y="-532" width="160" height="338" as="geometry"/>
                </mxCell>
                <mxCell id="Qyo6VF3bzxbn2ctdWiol-16" value="&lt;div&gt;- name:String&lt;/div&gt;&lt;div&gt;- id:int&lt;/div&gt;&lt;div&gt;- location:String&lt;/div&gt;&lt;div&gt;&lt;br&gt;&lt;/div&gt;" style="text;strokeColor=none;fillColor=none;align=left;verticalAlign=top;spacingLeft=4;spacingRight=4;overflow=hidden;rotatable=0;points=[[0,0.5],[1,0.5]];portConstraint=eastwest;whiteSpace=wrap;html=1;" parent="Qyo6VF3bzxbn2ctdWiol-15" vertex="1">
                    <mxGeometry y="26" width="160" height="74" as="geometry"/>
                </mxCell>
                <mxCell id="Qyo6VF3bzxbn2ctdWiol-17" value="" style="line;strokeWidth=1;fillColor=none;align=left;verticalAlign=middle;spacingTop=-1;spacingLeft=3;spacingRight=3;rotatable=0;labelPosition=right;points=[];portConstraint=eastwest;strokeColor=inherit;" parent="Qyo6VF3bzxbn2ctdWiol-15" vertex="1">
                    <mxGeometry y="100" width="160" height="8" as="geometry"/>
                </mxCell>
                <mxCell id="Qyo6VF3bzxbn2ctdWiol-18" value="&lt;div&gt;+Section(String name, int id, String location, ArrayList&amp;lt;Book&amp;gt; books)&lt;/div&gt;&lt;div&gt;+ addBook(Book book)&lt;/div&gt;&lt;div&gt;+ removeBook(Book book)&lt;/div&gt;&lt;div&gt;+ getName(): String&lt;/div&gt;&lt;div&gt;+ getId(): int&lt;/div&gt;&lt;div&gt;+ getLocation(): String&lt;/div&gt;&lt;div&gt;+ getBooks(): ArrayList&amp;lt;Book&amp;gt;&lt;/div&gt;&lt;div&gt;+ setId(int id)&lt;/div&gt;&lt;div&gt;+ setLocation(String location)&lt;/div&gt;&lt;div&gt;+ setName(String name)&lt;/div&gt;&lt;div&gt;+ toString(): String&amp;nbsp;&lt;/div&gt;&lt;div&gt;&lt;br&gt;&lt;/div&gt;" style="text;strokeColor=none;fillColor=none;align=left;verticalAlign=top;spacingLeft=4;spacingRight=4;overflow=hidden;rotatable=0;points=[[0,0.5],[1,0.5]];portConstraint=eastwest;whiteSpace=wrap;html=1;" parent="Qyo6VF3bzxbn2ctdWiol-15" vertex="1">
                    <mxGeometry y="108" width="160" height="230" as="geometry"/>
                </mxCell>
                <mxCell id="13" style="edgeStyle=none;html=1;exitX=0;exitY=0.5;exitDx=0;exitDy=0;entryX=1;entryY=0.5;entryDx=0;entryDy=0;endArrow=classic;endFill=1;" parent="1" source="Qyo6VF3bzxbn2ctdWiol-16" target="Qyo6VF3bzxbn2ctdWiol-3" edge="1">
                    <mxGeometry relative="1" as="geometry"/>
                </mxCell>
                <mxCell id="14" value="- books&lt;br&gt;1..*" style="edgeLabel;html=1;align=center;verticalAlign=middle;resizable=0;points=[];" parent="13" vertex="1" connectable="0">
                    <mxGeometry x="0.7741" y="-3" relative="1" as="geometry">
                        <mxPoint x="18" y="24" as="offset"/>
                    </mxGeometry>
                </mxCell>
                <mxCell id="19" value="has" style="edgeLabel;html=1;align=center;verticalAlign=middle;resizable=0;points=[];" parent="13" vertex="1" connectable="0">
                    <mxGeometry x="-0.0902" y="-1" relative="1" as="geometry">
                        <mxPoint as="offset"/>
                    </mxGeometry>
                </mxCell>
                <mxCell id="27" value="Library" style="swimlane;fontStyle=1;align=center;verticalAlign=top;childLayout=stackLayout;horizontal=1;startSize=26;horizontalStack=0;resizeParent=1;resizeParentMax=0;resizeLast=0;collapsible=1;marginBottom=0;" parent="1" vertex="1">
                    <mxGeometry x="160" y="-784" width="160" height="110" as="geometry"/>
                </mxCell>
                <mxCell id="28" value="- name: String" style="text;strokeColor=none;fillColor=none;align=left;verticalAlign=top;spacingLeft=4;spacingRight=4;overflow=hidden;rotatable=0;points=[[0,0.5],[1,0.5]];portConstraint=eastwest;" parent="27" vertex="1">
                    <mxGeometry y="26" width="160" height="26" as="geometry"/>
                </mxCell>
                <mxCell id="29" value="" style="line;strokeWidth=1;fillColor=none;align=left;verticalAlign=middle;spacingTop=-1;spacingLeft=3;spacingRight=3;rotatable=0;labelPosition=right;points=[];portConstraint=eastwest;strokeColor=inherit;" parent="27" vertex="1">
                    <mxGeometry y="52" width="160" height="8" as="geometry"/>
                </mxCell>
                <mxCell id="30" value="+ getName(): String&#10;+ lentBook(String): String" style="text;strokeColor=none;fillColor=none;align=left;verticalAlign=top;spacingLeft=4;spacingRight=4;overflow=hidden;rotatable=0;points=[[0,0.5],[1,0.5]];portConstraint=eastwest;" parent="27" vertex="1">
                    <mxGeometry y="60" width="160" height="50" as="geometry"/>
                </mxCell>
                <mxCell id="31" style="edgeStyle=none;html=1;entryX=0;entryY=0.25;entryDx=0;entryDy=0;exitX=1;exitY=0.5;exitDx=0;exitDy=0;" parent="1" source="28" target="Qyo6VF3bzxbn2ctdWiol-11" edge="1">
                    <mxGeometry relative="1" as="geometry"/>
                </mxCell>
                <mxCell id="49" value="Has" style="edgeLabel;html=1;align=center;verticalAlign=middle;resizable=0;points=[];" parent="31" vertex="1" connectable="0">
                    <mxGeometry x="-0.1632" y="-3" relative="1" as="geometry">
                        <mxPoint as="offset"/>
                    </mxGeometry>
                </mxCell>
                <mxCell id="50" value="- workers&lt;br&gt;*" style="edgeLabel;html=1;align=center;verticalAlign=middle;resizable=0;points=[];" parent="31" vertex="1" connectable="0">
                    <mxGeometry x="0.578" y="3" relative="1" as="geometry">
                        <mxPoint x="-16" y="9" as="offset"/>
                    </mxGeometry>
                </mxCell>
                <mxCell id="32" style="edgeStyle=none;html=1;entryX=0;entryY=0.5;entryDx=0;entryDy=0;exitX=1;exitY=0.5;exitDx=0;exitDy=0;" parent="1" source="28" target="Qyo6VF3bzxbn2ctdWiol-8" edge="1">
                    <mxGeometry relative="1" as="geometry"/>
                </mxCell>
                <mxCell id="46" value="Has" style="edgeLabel;html=1;align=center;verticalAlign=middle;resizable=0;points=[];" parent="32" vertex="1" connectable="0">
                    <mxGeometry x="-0.044" y="5" relative="1" as="geometry">
                        <mxPoint as="offset"/>
                    </mxGeometry>
                </mxCell>
                <mxCell id="47" value="- Members&lt;br&gt;*" style="edgeLabel;html=1;align=center;verticalAlign=middle;resizable=0;points=[];" parent="32" vertex="1" connectable="0">
                    <mxGeometry x="0.8602" relative="1" as="geometry">
                        <mxPoint x="-47" y="-14" as="offset"/>
                    </mxGeometry>
                </mxCell>
                <mxCell id="33" style="edgeStyle=none;html=1;exitX=0;exitY=0.5;exitDx=0;exitDy=0;entryX=1;entryY=0.389;entryDx=0;entryDy=0;entryPerimeter=0;" parent="1" source="28" target="Qyo6VF3bzxbn2ctdWiol-16" edge="1">
                    <mxGeometry relative="1" as="geometry">
                        <mxPoint x="50" y="-604" as="targetPoint"/>
                    </mxGeometry>
                </mxCell>
                <mxCell id="52" value="Have" style="edgeLabel;html=1;align=center;verticalAlign=middle;resizable=0;points=[];" parent="33" vertex="1" connectable="0">
                    <mxGeometry x="-0.1528" relative="1" as="geometry">
                        <mxPoint as="offset"/>
                    </mxGeometry>
                </mxCell>
                <mxCell id="53" value="- sections&lt;br&gt;*" style="edgeLabel;html=1;align=center;verticalAlign=middle;resizable=0;points=[];" parent="33" vertex="1" connectable="0">
                    <mxGeometry x="0.7329" relative="1" as="geometry">
                        <mxPoint x="41" y="-11" as="offset"/>
                    </mxGeometry>
                </mxCell>
                <mxCell id="34" style="edgeStyle=none;html=1;dashed=1;entryX=1;entryY=0.5;entryDx=0;entryDy=0;" parent="1" source="Qyo6VF3bzxbn2ctdWiol-12" target="Qyo6VF3bzxbn2ctdWiol-16" edge="1">
                    <mxGeometry relative="1" as="geometry">
                        <mxPoint x="50" y="-604" as="targetPoint"/>
                        <mxPoint x="460" y="-564" as="sourcePoint"/>
                    </mxGeometry>
                </mxCell>
                <mxCell id="51" value="Manages" style="edgeLabel;html=1;align=center;verticalAlign=middle;resizable=0;points=[];" parent="34" vertex="1" connectable="0">
                    <mxGeometry x="-0.0596" y="1" relative="1" as="geometry">
                        <mxPoint as="offset"/>
                    </mxGeometry>
                </mxCell>
                <mxCell id="35" style="edgeStyle=none;html=1;exitX=0;exitY=0.5;exitDx=0;exitDy=0;" parent="1" source="28" edge="1">
                    <mxGeometry relative="1" as="geometry">
                        <mxPoint x="-290" y="-664" as="targetPoint"/>
                    </mxGeometry>
                </mxCell>
                <mxCell id="54" value="Has" style="edgeLabel;html=1;align=center;verticalAlign=middle;resizable=0;points=[];" parent="35" vertex="1" connectable="0">
                    <mxGeometry x="-0.0567" relative="1" as="geometry">
                        <mxPoint as="offset"/>
                    </mxGeometry>
                </mxCell>
                <mxCell id="55" value="- books&lt;br&gt;*" style="edgeLabel;html=1;align=center;verticalAlign=middle;resizable=0;points=[];" parent="35" vertex="1" connectable="0">
                    <mxGeometry x="0.8836" relative="1" as="geometry">
                        <mxPoint x="24" y="-35" as="offset"/>
                    </mxGeometry>
                </mxCell>
                <mxCell id="36" style="edgeStyle=none;html=1;entryX=1;entryY=0.5;entryDx=0;entryDy=0;exitX=0;exitY=0.5;exitDx=0;exitDy=0;dashed=1;" parent="1" source="Qyo6VF3bzxbn2ctdWiol-8" target="Qyo6VF3bzxbn2ctdWiol-12" edge="1">
                    <mxGeometry relative="1" as="geometry"/>
                </mxCell>
                <mxCell id="44" value="GivePetitionToLibrarian" style="edgeLabel;html=1;align=center;verticalAlign=middle;resizable=0;points=[];" parent="36" vertex="1" connectable="0">
                    <mxGeometry x="-0.0596" y="-1" relative="1" as="geometry">
                        <mxPoint y="29" as="offset"/>
                    </mxGeometry>
                </mxCell>
                <mxCell id="37" style="edgeStyle=none;html=1;entryX=1;entryY=0.5;entryDx=0;entryDy=0;dashed=1;exitX=0.012;exitY=0.186;exitDx=0;exitDy=0;exitPerimeter=0;" parent="1" source="Qyo6VF3bzxbn2ctdWiol-12" target="28" edge="1">
                    <mxGeometry relative="1" as="geometry"/>
                </mxCell>
                <mxCell id="48" value="MakePetition" style="edgeLabel;html=1;align=center;verticalAlign=middle;resizable=0;points=[];" parent="37" vertex="1" connectable="0">
                    <mxGeometry x="0.7485" y="2" relative="1" as="geometry">
                        <mxPoint x="98" y="40" as="offset"/>
                    </mxGeometry>
                </mxCell>
                <mxCell id="38" value="LentBook" style="swimlane;fontStyle=1;align=center;verticalAlign=top;childLayout=stackLayout;horizontal=1;startSize=26;horizontalStack=0;resizeParent=1;resizeParentMax=0;resizeLast=0;collapsible=1;marginBottom=0;" parent="1" vertex="1">
                    <mxGeometry x="810" y="-1090" width="160" height="140" as="geometry"/>
                </mxCell>
                <mxCell id="39" value="- name: String&#10;- duedate: String" style="text;strokeColor=none;fillColor=none;align=left;verticalAlign=top;spacingLeft=4;spacingRight=4;overflow=hidden;rotatable=0;points=[[0,0.5],[1,0.5]];portConstraint=eastwest;" parent="38" vertex="1">
                    <mxGeometry y="26" width="160" height="44" as="geometry"/>
                </mxCell>
                <mxCell id="40" value="" style="line;strokeWidth=1;fillColor=none;align=left;verticalAlign=middle;spacingTop=-1;spacingLeft=3;spacingRight=3;rotatable=0;labelPosition=right;points=[];portConstraint=eastwest;strokeColor=inherit;" parent="38" vertex="1">
                    <mxGeometry y="70" width="160" height="8" as="geometry"/>
                </mxCell>
                <mxCell id="41" value="+ getName(): String&#10;+ getDueDates(): String&#10;+ setDueDate(String)" style="text;strokeColor=none;fillColor=none;align=left;verticalAlign=top;spacingLeft=4;spacingRight=4;overflow=hidden;rotatable=0;points=[[0,0.5],[1,0.5]];portConstraint=eastwest;" parent="38" vertex="1">
                    <mxGeometry y="78" width="160" height="62" as="geometry"/>
                </mxCell>
                <mxCell id="42" style="edgeStyle=none;html=1;entryX=0;entryY=0.5;entryDx=0;entryDy=0;exitX=1;exitY=0.5;exitDx=0;exitDy=0;" parent="1" source="28" target="39" edge="1">
                    <mxGeometry relative="1" as="geometry"/>
                </mxCell>
                <mxCell id="56" value="Lend" style="edgeLabel;html=1;align=center;verticalAlign=middle;resizable=0;points=[];" parent="42" vertex="1" connectable="0">
                    <mxGeometry x="0.1156" y="5" relative="1" as="geometry">
                        <mxPoint as="offset"/>
                    </mxGeometry>
                </mxCell>
                <mxCell id="57" value="- LendBooks&lt;br&gt;*" style="edgeLabel;html=1;align=center;verticalAlign=middle;resizable=0;points=[];" parent="42" vertex="1" connectable="0">
                    <mxGeometry x="0.8773" y="1" relative="1" as="geometry">
                        <mxPoint x="-49" y="-30" as="offset"/>
                    </mxGeometry>
                </mxCell>
                <mxCell id="43" style="edgeStyle=none;html=1;entryX=1;entryY=0.5;entryDx=0;entryDy=0;exitX=0;exitY=0.5;exitDx=0;exitDy=0;dashed=1;" parent="1" source="Qyo6VF3bzxbn2ctdWiol-8" target="39" edge="1">
                    <mxGeometry relative="1" as="geometry"/>
                </mxCell>
                <mxCell id="45" value="HaveDataOf" style="edgeLabel;html=1;align=center;verticalAlign=middle;resizable=0;points=[];" parent="43" vertex="1" connectable="0">
                    <mxGeometry x="0.2558" y="-5" relative="1" as="geometry">
                        <mxPoint x="52" y="-15" as="offset"/>
                    </mxGeometry>
                </mxCell>
            </root>
        </mxGraphModel>
    </diagram>
</mxfile>